<svg xmlns="http://www.w3.org/2000/svg" width="112" height="38" viewBox="0 0 112 38">
  <g fill="#FFFFFF">
    <path d="M75 11.57L73 11.57C72.9302084 11.5728523 72.8624061 11.5463766 72.8130148 11.4969852 72.7636234 11.4475939 72.7371477 11.3797916 72.74 11.31L72.74 7.86C72.7520248 7.77731857 72.7264977 7.69358695 72.6703914 7.63167655 72.6142851 7.56976615 72.5334623 7.53614618 72.45 7.54L71 7.54C70.9302084 7.53714774 70.8624061 7.56362345 70.8130148 7.61301479 70.7636234 7.66240613 70.7371477 7.73020835 70.74 7.8L70.74 11.25C70.7428523 11.3197916 70.7163766 11.3875939 70.6669852 11.4369852 70.6175939 11.4863766 70.5497916 11.5128523 70.48 11.51L68.06 11.51C67.9902084 11.5071477 67.9224061 11.5336234 67.8730148 11.5830148 67.8236234 11.6324061 67.7971477 11.7002084 67.8 11.77L67.8 13.22C67.7971477 13.2897916 67.8236234 13.3575939 67.8730148 13.4069852 67.9224061 13.4563766 67.9902084 13.4828523 68.06 13.48L70.51 13.48C70.5797916 13.4771477 70.6475939 13.5036234 70.6969852 13.5530148 70.7463766 13.6024061 70.7728523 13.6702084 70.77 13.74L70.77 18.74C70.7728523 18.8097916 70.7463766 18.8775939 70.6969852 18.9269852 70.6475939 18.9763766 70.5797916 19.0028523 70.51 19L68.06 19C67.9902084 18.9971477 67.9224061 19.0236234 67.8730148 19.0730148 67.8236234 19.1224061 67.7971477 19.1902084 67.8 19.26L67.8 20.71C67.7971477 20.7797916 67.8236234 20.8475939 67.8730148 20.8969852 67.9224061 20.9463766 67.9902084 20.9728523 68.06 20.97L70.51 20.97C70.5797916 20.9671477 70.6475939 20.9936234 70.6969852 21.0430148 70.7463766 21.0924061 70.7728523 21.1602084 70.77 21.23L70.77 25.71C70.8111946 26.4556305 70.5322545 27.1834074 70.003256 27.7104961 69.4742576 28.2375848 68.7454766 28.513891 68 28.47 67.8605975 28.4796477 67.7496477 28.5905975 67.74 28.73L67.74 30.18C67.74 30.3401626 67.8698374 30.47 68.03 30.47 70.26 30.37 72.74 29.08 72.74 25.67L72.74 21.34C72.7371477 21.2702084 72.7636234 21.2024061 72.8130148 21.1530148 72.8624061 21.1036234 72.9302084 21.0771477 73 21.08L75 21.08C75.0697916 21.0828523 75.1375939 21.0563766 75.1869852 21.0069852 75.2363766 20.9575939 75.2628523 20.8897916 75.26 20.82L75.26 19.37C75.2628523 19.3002084 75.2363766 19.2324061 75.1869852 19.1830148 75.1375939 19.1336234 75.0697916 19.1071477 75 19.11L73 19.11C72.9302084 19.1128523 72.8624061 19.0863766 72.8130148 19.0369852 72.7636234 18.9875939 72.7371477 18.9197916 72.74 18.85L72.74 13.79C72.7371477 13.7202084 72.7636234 13.6524061 72.8130148 13.6030148 72.8624061 13.5536234 72.9302084 13.5271477 73 13.53L75 13.53C75.0697916 13.5328523 75.1375939 13.5063766 75.1869852 13.4569852 75.2363766 13.4075939 75.2628523 13.3397916 75.26 13.27L75.26 11.83C75.2628523 11.7602084 75.2363766 11.6924061 75.1869852 11.6430148 75.1375939 11.5936234 75.0697916 11.5671477 75 11.57zM88.42 11.24L76.68 11.24C76.6102084 11.2371477 76.5424061 11.2636234 76.4930148 11.3130148 76.4436234 11.3624061 76.4171477 11.4302084 76.42 11.5L76.42 30.11C76.3892943 30.1810303 76.40014 30.2631917 76.4482254 30.3238212 76.4963109 30.3844507 76.5738433 30.4137226 76.65 30.4L83.33 30.4C84.756784 30.3973778 86.1236418 29.8260042 87.1278288 28.8124323 88.1320158 27.7988603 88.6906501 26.4267467 88.68 25L88.68 11.5C88.6828523 11.4302084 88.6563766 11.3624061 88.6069852 11.3130148 88.5575939 11.2636234 88.4897916 11.2371477 88.42 11.24L88.42 11.24zM86.65 25.08C86.6389861 26.9041547 85.1541795 28.3755444 83.33 28.37L78.68 28.37C78.6102084 28.3728523 78.5424061 28.3463766 78.4930148 28.2969852 78.4436234 28.2475939 78.4171477 28.1797916 78.42 28.11L78.42 21.11C78.4171477 21.0402084 78.4436234 20.9724061 78.4930148 20.9230148 78.5424061 20.8736234 78.6102084 20.8471477 78.68 20.85L86.39 20.85C86.4597916 20.8471477 86.5275939 20.8736234 86.5769852 20.9230148 86.6263766 20.9724061 86.6528523 21.0402084 86.65 21.11L86.65 25.08zM86.65 18.57C86.6528523 18.6397916 86.6263766 18.7075939 86.5769852 18.7569852 86.5275939 18.8063766 86.4597916 18.8328523 86.39 18.83L78.68 18.83C78.6102084 18.8328523 78.5424061 18.8063766 78.4930148 18.7569852 78.4436234 18.7075939 78.4171477 18.6397916 78.42 18.57L78.42 13.57C78.4171477 13.5002084 78.4436234 13.4324061 78.4930148 13.3830148 78.5424061 13.3336234 78.6102084 13.3071477 78.68 13.31L86.39 13.31C86.52 13.31 86.65 13.41 86.65 13.57L86.65 18.57zM79.45 9.5L85.58 9.5C85.6497916 9.50285226 85.7175939 9.47637655 85.7669852 9.42698521 85.8163766 9.37759387 85.8428523 9.30979165 85.84 9.24L85.84 7.79C85.84 7.66 85.74 7.53 85.58 7.53L79.45 7.53C79.3802084 7.52714774 79.3124061 7.55362345 79.2630148 7.60301479 79.2136234 7.65240613 79.1871477 7.72020835 79.19 7.79L79.19 9.24C79.1871477 9.30979165 79.2136234 9.37759387 79.2630148 9.42698521 79.3124061 9.47637655 79.3802084 9.50285226 79.45 9.5zM55.9 24.18C55.82 24.0733333 55.82 23.9266667 55.9 23.82 59.3793678 20.0237855 61.4390708 15.1412649 61.73 10L61.73 9.3C61.7274002 9.2336775 61.6985333 9.17111108 61.6497619 9.1260913 61.6009904 9.08107153 61.5363183 9.05729413 61.47 9.06L46.94 9.06C46.8736817 9.05729413 46.8090096 9.08107153 46.7602381 9.1260913 46.7114667 9.17111108 46.6825998 9.2336775 46.68 9.3L46.68 10.66C46.6825998 10.7263225 46.7114667 10.7888889 46.7602381 10.8339087 46.8090096 10.8789285 46.8736817 10.9027059 46.94 10.9L59.38 10.9C59.4526053 10.8933127 59.5243136 10.919994 59.5748889 10.9725144 59.6254641 11.0250349 59.6494214 11.0976986 59.64 11.17 59.0527896 15.2993729 57.2852801 19.1712257 54.55 22.32 54.4952646 22.3774722 54.4193663 22.41 54.34 22.41 54.2606337 22.41 54.1847354 22.3774722 54.13 22.32 51.7931888 19.6594203 50.1449902 16.4660357 49.33 13.02 49.3022775 12.8983264 49.1947828 12.8115037 49.07 12.81L47.58 12.81C47.5035188 12.8090886 47.4305161 12.8418995 47.3804226 12.8996996 47.3303292 12.9574997 47.3082274 13.0344248 47.32 13.11 47.8816576 15.6052279 48.8513598 17.9906276 50.19 20.17 50.9545516 21.4349666 51.8385943 22.6237361 52.83 23.72 52.9265112 23.820595 52.9265112 23.979405 52.83 24.08 51.0560846 25.7567526 48.960506 27.0562835 46.67 27.9 45.8201038 28.216716 44.9326886 28.4217627 44.03 28.51 43.8956849 28.5141521 43.7848669 28.6164457 43.77 28.75L43.77 30.14C43.7683865 30.2133449 43.8004076 30.2833995 43.8569257 30.3301731 43.9134438 30.3769468 43.9882509 30.3953016 44.06 30.38 45.25 30.32 49.51 29.74 54.25 25.38 54.3637172 25.2879834 54.5262828 25.2879834 54.64 25.38 57.3013244 27.6945294 60.4541551 29.3735314 63.86 30.29 63.9189804 30.3086458 63.9832695 30.2989508 64.0341283 30.2637409 64.0849871 30.2285309 64.1166914 30.171769 64.12 30.11L64.12 28.61C64.126826 28.4933511 64.0451029 28.3901219 63.93 28.37 60.9576269 27.6333358 58.204438 26.1967404 55.9 24.18L55.9 24.18zM95.78 11L107.78 11C107.848019 11.002723 107.914207 10.9775908 107.963277 10.9304083 108.012347 10.8832259 108.040054 10.8180737 108.04 10.75L108.04 9.31C108.04 9.18 107.94 9.06 107.78 9.06L95.78 9.06C95.7119808 9.05727703 95.6457925 9.08240919 95.5967227 9.12959165 95.547653 9.17677412 95.5199455 9.24192634 95.52 9.31L95.52 10.74C95.5171477 10.8097916 95.5436234 10.8775939 95.5930148 10.9269852 95.6424061 10.9763766 95.7102084 11.0028523 95.78 11L95.78 11zM110.74 17L92.59 17C92.5219808 16.997277 92.4557925 17.0224092 92.4067227 17.0695917 92.357653 17.1167741 92.3299455 17.1819263 92.33 17.25L92.33 18.68C92.3299455 18.7480737 92.357653 18.8132259 92.4067227 18.8604083 92.4557925 18.9075908 92.5219808 18.932723 92.59 18.93L98.29 18.93C98.3965354 18.9322519 98.4944473 18.9890633 98.5492715 19.0804371 98.6040958 19.1718109 98.6081473 19.2849384 98.56 19.38L95.13 25.64C94.5712574 26.6520736 94.6018395 27.886828 95.21 28.87 95.8089681 29.8348124 96.8643837 30.4211544 98 30.42L108.14 30.42C108.406136 30.4221666 108.665795 30.3379529 108.88 30.18 109.343104 29.8337287 109.487055 29.2028846 109.22 28.69L106.79 23.84C106.724993 23.7057792 106.589134 23.6203821 106.44 23.62L104.73 23.62C104.663124 23.6211007 104.601224 23.6555588 104.565056 23.7118214 104.528887 23.768084 104.523237 23.8387025 104.55 23.9L106.63 28C106.663157 28.0758238 106.656643 28.1631424 106.612602 28.233207 106.568561 28.3032716 106.492702 28.3470019 106.41 28.35L98 28.35C97.5784809 28.3479012 97.1889719 28.1247911 96.9739093 27.7622572 96.7588468 27.3997232 96.7497707 26.9509326 96.95 26.58L100.79 19.58C101.016923 19.1617894 101.454192 18.9009626 101.93 18.9L110.78 18.9C110.848019 18.902723 110.914207 18.8775908 110.963277 18.8304083 111.012347 18.7832259 111.040054 18.7180737 111.04 18.65L111.04 17.24C111 17.11 110.9 17 110.74 17zM28.1909362 2.38415112C27.6431274 2.07789009 26.953356 2.22265693 26.5749015 2.7233189L21.8365281 8.97797181 21.4973603 9.42687034C20.9773322 10.0982001 20.160619 10.4711285 19.3127208 10.4244226 19.0037054 10.4077093 18.6940125 10.4077093 18.3849971 10.4244226 13.7342372 10.6820012 10.1667541 14.6508262 10.4045787 19.3026381 10.4193603 19.6460565 10.6228126 19.9531543 10.9332815 20.1006799 11.8005441 20.4941506 12.3231197 21.3940559 12.2350015 22.3423169 12.1468833 23.2905779 11.467438 24.0787841 10.5425238 24.3057147 9.61760965 24.5326454 8.65050586 24.1484252 8.13349748 23.3486339 7.6164891 22.5488426 7.66320516 21.5092598 8.24986577 20.7590644 8.4745125 20.4775723 8.58173074 20.1201781 8.54913146 19.7615121 8.31502806 16.883746 9.2954427 14.0392617 11.2529562 11.916885 13.2104697 9.79450824 15.9665745 8.5877809 18.8538467 8.58892641 19.4545728 8.58502673 20.0190486 8.30094411 20.3801017 7.82081114L24.7493808 1.99510572C24.894045 1.78459776 24.9306577 1.51808405 24.848119 1.27636376 24.7655804 1.03464346 24.5736104.846182379 24.3304088.768116395 15.5959806-1.7921202 6.27490066 2.21790652 2.12753118 10.3200281-2.0198383 18.4221497.177683809 28.3283973 7.36204423 33.9167793 8.12270938 34.501762 8.92634885 35.0286294 9.76614526 35.4929119 10.3109172 35.7978551 10.9972457 35.6529161 11.3722045 35.1537441L16.1205534 28.9290178 16.4597212 28.4801192C16.9797493 27.8087895 17.7964625 27.4358611 18.6443607 27.4825669 18.9533761 27.4992803 19.263069 27.4992803 19.5720844 27.4825669 24.2228442 27.2249884 27.7903274 23.2561633 27.5525027 18.6043515 27.5377211 18.260933 27.3342689 17.9538353 27.0238 17.8063096 26.1565373 17.412839 25.6339617 16.5129336 25.7220799 15.5646726 25.8101982 14.6164116 26.4896435 13.8282054 27.4145576 13.6012748 28.3394718 13.3743442 29.3065756 13.7585644 29.823584 14.5583556 30.3405924 15.3581469 30.2938763 16.3977298 29.7072157 17.1479251 29.482569 17.4294173 29.3753507 17.7868114 29.40795 18.1454774 29.6421967 21.0249749 28.6604615 23.871067 26.7007462 25.993776 24.741031 28.116485 21.9822663 29.3219982 19.0932592 29.3180632 18.4925332 29.3219628 17.9280573 29.6060455 17.5670042 30.0861784L13.1977252 35.9118838C13.040208 36.123712 12.996094 36.3991267 13.0795703 36.6495554 13.1630465 36.8999841 13.3635865 37.0938476 13.6166971 37.1687997 22.4325424 39.8274511 31.8837827 35.7653176 36.0214003 27.5392812 40.1590179 19.3132449 37.7857893 9.30351668 30.3955268 3.8106509 29.6942522 3.28514801 28.9576489 2.80852239 28.1909362 2.38415112z"/>
  </g>
</svg>
